<?xml version="1.0" encoding="utf-8"?>
<!-- Generator: Adobe Illustrator 22.0.0, SVG Export Plug-In . SVG Version: 6.00 Build 0)  -->
<svg version="1.1" id="Layer_1" xmlns="http://www.w3.org/2000/svg" xmlns:xlink="http://www.w3.org/1999/xlink" x="0px" y="0px"
	 viewBox="0 0 120 44" style="enable-background:new 0 0 120 44;" xml:space="preserve">
<style type="text/css">
	.st0{fill:#00BCD0;}
	.st1{fill:#7E59E7;}
	.st2{opacity:0.88;fill:none;stroke:#E28B16;stroke-miterlimit:10;}
	.st3{opacity:0.78;fill:none;stroke:#D2E0FF;stroke-miterlimit:10;}
	.st4{opacity:0.78;fill:none;stroke:#F1FF73;stroke-miterlimit:10;}
	.st5{opacity:0.68;}
	.st6{fill:#B2BBC7;}
</style>
<g>
	<path class="st0" d="M16.4,15.3h3.4v1.4h-0.3l-3.1-0.4V15.3z M16.4,31.7l2.7-0.4h0.5l2.5,0.4v1h-5.8V31.7z M18.7,15.3h1.1L20,23
		v9.7h-1.3V15.3z M18.7,15.3H21l6.4,15.6h-0.9l6-15.6h1.4l-6.8,17.4h-1.3L18.7,15.3z M30.6,31.7l3.1-0.4h0.5l3.4,0.4v1h-7V31.7z
		 M32.9,24.7v-9.4h2.4c-0.1,2.6-0.1,5.3-0.1,8.1v1.3c0,2.7,0,5.4,0.1,8.1h-2.4C32.9,30.1,32.9,27.4,32.9,24.7z M34,15.3h3.6v1
		l-3.4,0.4H34V15.3z"/>
	<path class="st1" d="M41.5,21l-2.7-0.5v-1.1h6.7v1.1L42.1,21H41.5z M42.4,19.4l4.4,11.4l-1.1,1.5l4.5-12.9h1.5l-5.1,13.4h-1.1
		l-5.7-13.4H42.4z M50.1,21l-2.8-0.5v-1.1h5.3v1.1l-2,0.5H50.1z"/>
	<path class="st0" d="M66.5,30.3v1.3L65,32l0.6-3.6h1.5L67,31.9c-1.5,0.8-3.2,1.2-4.8,1.2c-4.8,0-8.1-3.5-8.1-8.4
		c0-4.8,3.4-8.4,8.1-8.4c1.3,0,3,0.2,4.6,1.2l0.1,3.5h-1.5l-0.6-3.6l1.5,0.3v1.5c-1.4-1.3-2.7-1.7-3.9-1.7c-3.2,0-5.9,2.5-5.9,7.2
		c0,4.7,2.4,7.2,5.7,7.2C63.6,31.9,65.2,31.5,66.5,30.3z"/>
</g>
<path class="st2" d="M84.6,14.8c0.2,4.6,0.1,1.9-0.1-1.8c-0.1-3.6-0.3-8.2-0.3-8.2l17-0.6l0.6,17l-17,0.6l-0.1-4L84.6,14.8z"/>
<path class="st3" d="M79.6,19.8c0.2,4.6,0.1,1.9-0.1-1.8c-0.1-3.6-0.3-8.2-0.3-8.2l17-0.6l0.6,17l-17,0.6l-0.1-4L79.6,19.8z"/>
<path class="st4" d="M71.6,24.8c0.2,4.6,0.1,1.9-0.1-1.8c-0.1-3.6-0.3-8.2-0.3-8.2l17-0.6l0.6,17l-17,0.6l-0.1-4L71.6,24.8z"/>
<g class="st5">
	<path class="st6" d="M24.6,40.1c0-0.4,0-1.2,0-1.7V38c0-0.4,0-0.7,0-1L24,37v-0.3l1.1-0.5l0.1,0.1l0.1,0.9v1.2c0,0.5,0,1.3,0,1.7
		H24.6z M25.9,39.8v0.3H24v-0.3l0.9-0.2h0.2L25.9,39.8z M27.7,37.7v0.7c0,0.5,0,1.3,0,1.7H27c0-0.4,0-1.2,0-1.7v-0.7
		c0-0.7-0.2-1-0.7-1c-0.4,0-0.7,0.2-1.2,0.6H25v-0.4h0.4l-0.3,0.1c0.4-0.5,1-0.9,1.6-0.9C27.4,36.2,27.7,36.6,27.7,37.7z M27.5,39.6
		l0.8,0.2v0.3h-1.8v-0.3l0.9-0.2H27.5z"/>
	<path class="st6" d="M32.2,37.7c0,0.2,0,0.3-0.1,0.4h-3v-0.3h1.9c0.4,0,0.5-0.2,0.5-0.4c0-0.5-0.4-0.9-0.9-0.9
		c-0.5,0-1.1,0.4-1.1,1.6c0,1,0.5,1.6,1.3,1.6c0.5,0,0.8-0.2,1.1-0.6l0.2,0.1c-0.3,0.6-0.8,0.9-1.5,0.9c-1.1,0-1.8-0.7-1.8-2
		c0-1.2,0.8-2,1.8-2C31.5,36.2,32.2,36.8,32.2,37.7z"/>
	<path class="st6" d="M33.5,39.7l0.8,0.1v0.3h-1.6v-0.3l0.7-0.1H33.5z M33.6,36.7l-0.8-0.1v-0.3h1.8v0.3l-0.8,0.1H33.6z M32.9,40.1
		l1.7-2.1l0.3,0.2l-1.5,1.9H32.9z M33.7,36.3l1.1,1.6l1.5,2.2h-0.7l-1.2-1.7L33,36.3H33.7z M36.5,36.3l-1.7,2l-0.3-0.2l1.4-1.8H36.5
		z M35.8,39.6l0.9,0.2v0.3h-1.9v-0.3l0.9-0.2H35.8z M35.8,36.7l-0.7-0.1v-0.3h1.5v0.3l-0.7,0.1H35.8z"/>
	<path class="st6" d="M38.6,39.8c0.2,0,0.3-0.1,0.5-0.2l0.2,0.2c-0.2,0.3-0.5,0.4-0.9,0.4c-0.6,0-0.9-0.3-0.9-0.9c0-0.2,0-0.4,0-0.7
		v-1.9h-0.7v-0.3l1-0.1l-0.3,0.3l0.2-1.3h0.5l-0.1,1.4v2.6C38.2,39.6,38.4,39.8,38.6,39.8z M39.3,36.3v0.4h-1.4v-0.4H39.3z"/>
	<path class="st6" d="M42.7,34.2l0.1,0.1l0,1.1v3c0,0.6,0,1.1,0,1.7h-0.7c0-0.6,0-1.1,0-1.7v-3.5l-0.7-0.1v-0.3L42.7,34.2z
		 M43.4,39.8v0.3h-2v-0.3l0.9-0.2h0.2L43.4,39.8z"/>
	<path class="st6" d="M47.3,37.7c0,0.2,0,0.3-0.1,0.4h-3v-0.3h1.9c0.4,0,0.5-0.2,0.5-0.4c0-0.5-0.4-0.9-0.9-0.9
		c-0.5,0-1.1,0.4-1.1,1.6c0,1,0.5,1.6,1.3,1.6c0.5,0,0.8-0.2,1.1-0.6l0.2,0.1c-0.3,0.6-0.8,0.9-1.5,0.9c-1.1,0-1.8-0.7-1.8-2
		c0-1.2,0.8-2,1.8-2C46.6,36.2,47.3,36.8,47.3,37.7z"/>
	<path class="st6" d="M48.5,36.7l-0.8-0.1v-0.3h1.9v0.3l-1,0.1H48.5z M48.7,36.3l1.2,3.3L49.6,40l1.3-3.7h0.4l-1.5,3.8h-0.3L48,36.3
		H48.7z M50.9,36.7l-0.8-0.1v-0.3h1.5v0.3l-0.6,0.1H50.9z"/>
	<path class="st6" d="M55.4,37.7c0,0.2,0,0.3-0.1,0.4h-3v-0.3h1.9c0.4,0,0.5-0.2,0.5-0.4c0-0.5-0.4-0.9-0.9-0.9
		c-0.5,0-1.1,0.4-1.1,1.6c0,1,0.5,1.6,1.3,1.6c0.5,0,0.8-0.2,1.1-0.6l0.2,0.1c-0.3,0.6-0.8,0.9-1.5,0.9c-1.1,0-1.8-0.7-1.8-2
		c0-1.2,0.8-2,1.8-2C54.7,36.2,55.4,36.8,55.4,37.7z"/>
	<path class="st6" d="M57.2,34.2l0.1,0.1l0,1.1v3c0,0.6,0,1.1,0,1.7h-0.7c0-0.6,0-1.1,0-1.7v-3.5L56,34.8v-0.3L57.2,34.2z M58,39.8
		v0.3h-2v-0.3l0.9-0.2h0.2L58,39.8z"/>
	<path class="st6" d="M63.7,37.7c0,0.2,0,0.3-0.1,0.4h-3v-0.3h1.9c0.4,0,0.5-0.2,0.5-0.4c0-0.5-0.4-0.9-0.9-0.9
		c-0.5,0-1.1,0.4-1.1,1.6c0,1,0.5,1.6,1.3,1.6c0.5,0,0.8-0.2,1.1-0.6l0.2,0.1c-0.3,0.6-0.8,0.9-1.5,0.9c-1.1,0-1.8-0.7-1.8-2
		c0-1.2,0.8-2,1.8-2C63,36.2,63.7,36.8,63.7,37.7z"/>
	<path class="st6" d="M66.3,39.8c0.4,0,0.7-0.2,1.1-0.6l0.1,0.2c-0.3,0.5-0.7,0.9-1.3,0.9c-1,0-1.6-0.8-1.6-2c0-1.2,0.7-2,1.7-2
		c0.5,0,0.8,0.2,1.3,0.8l-0.1,0.2c-0.5-0.4-0.8-0.6-1.1-0.6c-0.6,0-1.1,0.5-1.1,1.6C65.2,39.3,65.6,39.8,66.3,39.8z M68.5,39.8v0.3
		l-1.2,0.1l-0.1-0.8V37l0-0.1v-2l-0.7-0.1v-0.3l1.2-0.4l0.1,0.1l0,1.1v4.7l-0.1-0.4L68.5,39.8z"/>
	<path class="st6" d="M70,38.7c0,0.7,0.2,1,0.6,1c0.4,0,0.8-0.2,1.2-0.6h0.2v0.4h-0.4l0.3-0.1c-0.5,0.6-1,0.9-1.5,0.9
		c-0.6,0-1-0.4-1-1.4l0-2.1l0.2,0.2l-0.7-0.2v-0.3l1.2-0.1l0.1,0.1l0,1.1V38.7z M71.9,40.2l-0.1-0.9l0-2.6l0.2,0.2l-0.7-0.2v-0.3
		l1.1-0.1l0.1,0.1l0,1.1v2.4l-0.2-0.2l0.7,0.2v0.3L71.9,40.2z"/>
	<path class="st6" d="M74.3,38.1c0,1,0.5,1.6,1.3,1.6c0.5,0,0.9-0.2,1.1-0.6l0.2,0.1c-0.2,0.7-0.7,1-1.5,1c-1.1,0-1.8-0.8-1.8-2
		c0-1.3,0.9-2,1.8-2c0.7,0,1.3,0.4,1.4,1c0,0.2-0.2,0.3-0.4,0.3c-0.3,0-0.4-0.2-0.4-0.4l-0.2-0.7l0.4,0.3c-0.3-0.1-0.5-0.2-0.8-0.2
		C74.8,36.6,74.3,37.1,74.3,38.1z"/>
	<path class="st6" d="M78.8,38c0.3-0.1,0.8-0.3,1.2-0.3v0.3c-0.4,0.1-0.8,0.2-1.1,0.3c-0.7,0.3-0.8,0.6-0.8,0.8
		c0,0.4,0.3,0.6,0.6,0.6c0.3,0,0.4-0.1,0.9-0.5l0.2-0.1l0.1,0.2l-0.2,0.2c-0.5,0.5-0.8,0.7-1.2,0.7c-0.6,0-1.1-0.3-1.1-1
		C77.5,38.7,77.8,38.4,78.8,38z M79.8,39.4v-1.8c0-0.8-0.2-1-0.8-1c-0.2,0-0.4,0-0.7,0.1l0.3-0.2l-0.2,0.7c-0.1,0.2-0.2,0.4-0.4,0.4
		c-0.2,0-0.3-0.1-0.4-0.3c0.2-0.6,0.7-1,1.5-1c0.8,0,1.2,0.4,1.2,1.4v1.7c0,0.4,0.1,0.5,0.3,0.5c0.1,0,0.2-0.1,0.3-0.2l0.2,0.2
		c-0.2,0.3-0.4,0.4-0.7,0.4C80.1,40.2,79.8,39.8,79.8,39.4z"/>
	<path class="st6" d="M83.1,39.8c0.2,0,0.3-0.1,0.5-0.2l0.2,0.2c-0.2,0.3-0.5,0.4-0.9,0.4c-0.6,0-0.9-0.3-0.9-0.9c0-0.2,0-0.4,0-0.7
		v-1.9h-0.7v-0.3l1-0.1L82,36.5l0.2-1.3h0.5l-0.1,1.4v2.6C82.6,39.6,82.8,39.8,83.1,39.8z M83.7,36.3v0.4h-1.4v-0.4H83.7z"/>
	<path class="st6" d="M84.7,40.1c0-0.4,0-1.2,0-1.7V38c0-0.4,0-0.7,0-1L84,37v-0.3l1.2-0.5l0.1,0.1l0,1.1v1.1c0,0.5,0,1.3,0,1.7
		H84.7z M85.9,39.8v0.3h-1.8v-0.3l0.9-0.2h0.2L85.9,39.8z M84.5,34.8c0-0.3,0.2-0.5,0.5-0.5c0.3,0,0.5,0.2,0.5,0.5
		c0,0.3-0.2,0.5-0.5,0.5C84.7,35.3,84.5,35.1,84.5,34.8z"/>
	<path class="st6" d="M86.6,38.2c0-1.3,0.9-2,1.8-2c0.9,0,1.8,0.7,1.8,2s-0.9,2-1.8,2C87.5,40.2,86.6,39.5,86.6,38.2z M89.5,38.2
		c0-1.1-0.4-1.7-1.1-1.7c-0.7,0-1.1,0.6-1.1,1.7s0.4,1.6,1.1,1.6C89.1,39.8,89.5,39.3,89.5,38.2z"/>
	<path class="st6" d="M91.5,40.1c0-0.4,0-1.2,0-1.7V38c0-0.4,0-0.7,0-1L90.9,37v-0.3l1.1-0.5l0.1,0.1l0.1,0.9v1.2c0,0.5,0,1.3,0,1.7
		H91.5z M92.7,39.8v0.3h-1.8v-0.3l0.9-0.2h0.2L92.7,39.8z M94.6,37.7v0.7c0,0.5,0,1.3,0,1.7h-0.7c0-0.4,0-1.2,0-1.7v-0.7
		c0-0.7-0.2-1-0.7-1c-0.4,0-0.7,0.2-1.2,0.6h-0.2v-0.4h0.4L92,37.1c0.4-0.5,1-0.9,1.6-0.9C94.3,36.2,94.6,36.6,94.6,37.7z
		 M94.4,39.6l0.8,0.2v0.3h-1.8v-0.3l0.9-0.2H94.4z"/>
</g>
</svg>
